<svg width="35" height="35" viewBox="0 0 35 35" fill="none" xmlns="http://www.w3.org/2000/svg">
<g id="akar-icons:stop-fill">
<path id="Vector" fill-rule="evenodd" clip-rule="evenodd" d="M12.2096 2.10034C12.0221 2.10036 11.8365 2.13791 11.6637 2.21079C11.4909 2.28366 11.3345 2.39038 11.2036 2.52465L2.77353 11.1739C2.51773 11.4363 2.37455 11.7882 2.37451 12.1546V23.1755C2.37459 23.5481 2.52267 23.9054 2.78618 24.1688L11.2162 32.5989C11.4797 32.8624 11.837 33.0105 12.2096 33.0105H23.4496C23.8223 33.0105 24.1796 32.8624 24.443 32.5989L32.873 24.1688C33.1366 23.9054 33.2846 23.5481 33.2847 23.1755V12.1546C33.2847 11.7882 33.1415 11.4363 32.8857 11.1739L24.4556 2.52465C24.3248 2.39038 24.1683 2.28366 23.9955 2.21079C23.8228 2.13791 23.6372 2.10036 23.4496 2.10034H12.2096ZM12.2096 16.1504C11.8369 16.1504 11.4796 16.2985 11.2161 16.562C10.9526 16.8254 10.8046 17.1828 10.8046 17.5554C10.8046 17.9281 10.9526 18.2854 11.2161 18.5489C11.4796 18.8124 11.8369 18.9605 12.2096 18.9605H23.4496C23.8223 18.9605 24.1797 18.8124 24.4431 18.5489C24.7066 18.2854 24.8547 17.9281 24.8547 17.5554C24.8547 17.1828 24.7066 16.8254 24.4431 16.562C24.1797 16.2985 23.8223 16.1504 23.4496 16.1504H12.2096Z" fill="#1B58B1"/>
</g>
</svg>
