<svg width="38" height="38" viewBox="0 0 38 38" fill="none" xmlns="http://www.w3.org/2000/svg">
<g id="fluent:people-settings-24-filled">
<path id="Vector" d="M12.5134 17.5302C14.165 17.5302 15.7491 16.874 16.917 15.7061C18.0849 14.5382 18.741 12.9542 18.741 11.3026C18.741 9.6509 18.0849 8.06688 16.917 6.89898C15.7491 5.73107 14.165 5.07495 12.5134 5.07495C10.8617 5.07495 9.2777 5.73107 8.10979 6.89898C6.94189 8.06688 6.28577 9.6509 6.28577 11.3026C6.28577 12.9542 6.94189 14.5382 8.10979 15.7061C9.2777 16.874 10.8617 17.5302 12.5134 17.5302ZM26.5255 17.5302C27.7642 17.5302 28.9523 17.0381 29.8282 16.1622C30.7041 15.2862 31.1962 14.0982 31.1962 12.8595C31.1962 11.6207 30.7041 10.4327 29.8282 9.55677C28.9523 8.68085 27.7642 8.18876 26.5255 8.18876C25.2867 8.18876 24.0987 8.68085 23.2228 9.55677C22.3469 10.4327 21.8548 11.6207 21.8548 12.8595C21.8548 14.0982 22.3469 15.2862 23.2228 16.1622C24.0987 17.0381 25.2867 17.5302 26.5255 17.5302ZM6.675 20.644C5.74593 20.644 4.85493 21.013 4.19798 21.67C3.54103 22.3269 3.17197 23.2179 3.17197 24.147V24.5362C3.17197 24.5362 3.17197 31.5423 12.5134 31.5423C14.6775 31.5423 16.3402 31.1671 17.6169 30.5879C17.329 29.6352 17.1831 28.6453 17.1841 27.65C17.1841 25.0702 18.1494 22.7162 19.7374 20.9289C19.2998 20.7404 18.8282 20.6434 18.3518 20.644H6.675ZM22.2861 22.1635C22.4022 22.566 22.436 22.9879 22.3853 23.4037C22.3346 23.8196 22.2005 24.221 21.991 24.5838C21.7816 24.9466 21.501 25.2635 21.1662 25.5153C20.8314 25.7672 20.4492 25.9489 20.0426 26.0495L19.1333 26.2753C18.9876 27.2077 18.9907 28.1572 19.1427 29.0886L19.9834 29.291C20.3938 29.3899 20.7798 29.5711 21.1179 29.8237C21.4561 30.0764 21.7393 30.3951 21.9505 30.7606C22.1616 31.1261 22.2962 31.5308 22.3462 31.9499C22.3961 32.369 22.3603 32.794 22.2409 33.1988L21.9498 34.1812C22.6348 34.7822 23.4132 35.2711 24.2618 35.6167L25.0293 34.8087C25.3202 34.5027 25.6702 34.2591 26.0582 34.0926C26.4461 33.9262 26.8639 33.8403 27.286 33.8403C27.7082 33.8403 28.126 33.9262 28.5139 34.0926C28.9019 34.2591 29.2519 34.5027 29.5428 34.8087L30.3197 35.6276C31.1621 35.2846 31.9418 34.8043 32.627 34.2061L32.3187 33.1381C32.2026 32.7355 32.1689 32.3136 32.2197 31.8976C32.2705 31.4816 32.4047 31.0802 32.6143 30.7174C32.824 30.3545 33.1047 30.0377 33.4396 29.7859C33.7746 29.5342 34.157 29.3526 34.5638 29.2521L35.4715 29.0263C35.6172 28.094 35.614 27.1444 35.4621 26.213L34.6214 26.0106C34.2112 25.9116 33.8253 25.7302 33.4874 25.4775C33.1494 25.2248 32.8663 24.906 32.6553 24.5405C32.4443 24.175 32.3098 23.7705 32.26 23.3514C32.2102 22.9324 32.246 22.5076 32.3654 22.1028L32.655 21.1204C31.97 20.5169 31.1891 20.0317 30.3446 19.6849L29.577 20.4914C29.2861 20.7976 28.936 21.0414 28.5479 21.208C28.1598 21.3747 27.7419 21.4606 27.3195 21.4606C26.8972 21.4606 26.4792 21.3747 26.0911 21.208C25.703 21.0414 25.3529 20.7976 25.062 20.4914L24.2867 19.674C23.4397 20.0165 22.6613 20.4992 21.9778 21.0955L22.2861 22.1635ZM27.3039 29.9854C26.0584 29.9854 25.0464 28.9407 25.0464 27.65C25.0464 26.3609 26.0584 25.3147 27.3039 25.3147C28.5495 25.3147 29.5615 26.3609 29.5615 27.65C29.5615 28.9407 28.5495 29.9854 27.3039 29.9854Z" fill="#1B58B1"/>
</g>
</svg>
