<svg width="42" height="42" viewBox="0 0 42 42" fill="none" xmlns="http://www.w3.org/2000/svg">
<g id="fluent:folder-people-20-filled">
<path id="Vector" d="M4.35318 11.8598C4.35318 10.5002 4.89328 9.19627 5.85466 8.23488C6.81605 7.2735 8.11996 6.7334 9.47957 6.7334H14.569C15.5205 6.7334 16.435 7.1107 17.1076 7.78533L19.7323 10.41L15.5082 14.6342C15.4127 14.7299 15.2993 14.8059 15.1743 14.8576C15.0494 14.9093 14.9155 14.9359 14.7802 14.9356H4.35318V11.8598ZM4.35318 16.9862V30.3148C4.35318 31.6744 4.89328 32.9783 5.85466 33.9397C6.81605 34.9011 8.11996 35.4412 9.47957 35.4412H18.7194C18.627 34.3391 18.9229 33.2394 19.5557 32.3325C20.1886 31.4255 21.1186 30.7684 22.1848 30.4747C21.6479 29.8701 21.2474 29.1571 21.0103 28.384C20.7732 27.611 20.7051 26.796 20.8107 25.9943C20.9163 25.1927 21.193 24.4231 21.6222 23.7378C22.0513 23.0525 22.6228 22.4675 23.2979 22.0225C23.973 21.5774 24.7359 21.2828 25.5349 21.1586C26.3339 21.0343 27.1502 21.0833 27.9286 21.3023C28.707 21.5213 29.4291 21.9051 30.0461 22.4277C30.6631 22.9503 31.1605 23.5995 31.5046 24.3313C32.2657 23.6401 33.2362 23.2236 34.2616 23.1482C35.2869 23.0727 36.308 23.3427 37.162 23.915V15.9609C37.162 14.6013 36.6219 13.2974 35.6606 12.336C34.6992 11.3746 33.3953 10.8345 32.0357 10.8345H22.2074L16.9579 16.0839C16.6721 16.3701 16.3326 16.5971 15.959 16.7519C15.5853 16.9068 15.1847 16.9864 14.7802 16.9862H4.35318ZM29.9851 26.7263C29.9851 27.1975 29.8923 27.6642 29.7119 28.0995C29.5316 28.5349 29.2673 28.9305 28.9341 29.2637C28.6008 29.597 28.2053 29.8613 27.7699 30.0416C27.3345 30.222 26.8679 30.3148 26.3966 30.3148C25.9254 30.3148 25.4588 30.222 25.0234 30.0416C24.588 29.8613 24.1924 29.597 23.8592 29.2637C23.526 28.9305 23.2617 28.5349 23.0813 28.0995C22.901 27.6642 22.8082 27.1975 22.8082 26.7263C22.8082 25.7746 23.1862 24.8618 23.8592 24.1889C24.5322 23.5159 25.4449 23.1378 26.3966 23.1378C27.3484 23.1378 28.2611 23.5159 28.9341 24.1889C29.607 24.8618 29.9851 25.7746 29.9851 26.7263ZM33.0609 35.0577C33.0609 37.2928 31.3036 39.5423 26.9093 39.5423C22.5149 39.5423 20.7576 37.299 20.7576 35.0557C20.7576 33.5711 21.9387 32.3653 23.3946 32.3653H30.4239C31.8798 32.3653 33.0609 33.571 33.0609 35.0577ZM34.039 38.517H34.0862C37.7485 38.517 39.2126 36.5874 39.2126 34.6722C39.2126 33.3988 38.2283 32.3653 37.0165 32.3653H34.2831C34.808 33.1343 35.1115 34.0652 35.1115 35.0577C35.1115 36.2511 34.7711 37.463 34.039 38.517ZM37.162 27.7516C37.162 28.4314 36.892 29.0833 36.4113 29.564C35.9306 30.0447 35.2787 30.3148 34.5989 30.3148C33.9191 30.3148 33.2671 30.0447 32.7864 29.564C32.3057 29.0833 32.0357 28.4314 32.0357 27.7516C32.0357 27.0718 32.3057 26.4198 32.7864 25.9391C33.2671 25.4584 33.9191 25.1884 34.5989 25.1884C35.2787 25.1884 35.9306 25.4584 36.4113 25.9391C36.892 26.4198 37.162 27.0718 37.162 27.7516Z" fill="#1B58B1"/>
</g>
</svg>
