<svg width="32" height="33" viewBox="0 0 32 33" fill="none" xmlns="http://www.w3.org/2000/svg">
<mask id="mask0_219_339" style="mask-type:luminance" maskUnits="userSpaceOnUse" x="1" y="2" width="30" height="30">
<path d="M11.88 3.51978H3.96C3.60991 3.51978 3.27417 3.65885 3.02662 3.90639C2.77907 4.15394 2.64 4.48969 2.64 4.83978V12.7598C2.64 13.1099 2.77907 13.4456 3.02662 13.6932C3.27417 13.9407 3.60991 14.0798 3.96 14.0798H11.88C12.2301 14.0798 12.5658 13.9407 12.8134 13.6932C13.0609 13.4456 13.2 13.1099 13.2 12.7598V4.83978C13.2 4.48969 13.0609 4.15394 12.8134 3.90639C12.5658 3.65885 12.2301 3.51978 11.88 3.51978ZM11.88 19.3598H3.96C3.60991 19.3598 3.27417 19.4988 3.02662 19.7464C2.77907 19.9939 2.64 20.3297 2.64 20.6798V28.5998C2.64 28.9499 2.77907 29.2856 3.02662 29.5332C3.27417 29.7807 3.60991 29.9198 3.96 29.9198H11.88C12.2301 29.9198 12.5658 29.7807 12.8134 29.5332C13.0609 29.2856 13.2 28.9499 13.2 28.5998V20.6798C13.2 20.3297 13.0609 19.9939 12.8134 19.7464C12.5658 19.4988 12.2301 19.3598 11.88 19.3598ZM27.72 3.51978H19.8C19.4499 3.51978 19.1142 3.65885 18.8666 3.90639C18.6191 4.15394 18.48 4.48969 18.48 4.83978V12.7598C18.48 13.1099 18.6191 13.4456 18.8666 13.6932C19.1142 13.9407 19.4499 14.0798 19.8 14.0798H27.72C28.0701 14.0798 28.4058 13.9407 28.6534 13.6932C28.9009 13.4456 29.04 13.1099 29.04 12.7598V4.83978C29.04 4.48969 28.9009 4.15394 28.6534 3.90639C28.4058 3.65885 28.0701 3.51978 27.72 3.51978Z" fill="white" stroke="white" stroke-width="2.64" stroke-linejoin="round"/>
<path d="M18.48 19.3599H29.04M23.76 24.6399H29.04M18.48 29.9199H29.04" stroke="white" stroke-width="2.64" stroke-linecap="round" stroke-linejoin="round"/>
</mask>
<g mask="url(#mask0_219_339)">
<path d="M0 0.879639H31.68V32.5596H0V0.879639Z" fill="#14407F"/>
</g>
</svg>
