<svg width="36" height="36" viewBox="0 0 36 36" fill="none" xmlns="http://www.w3.org/2000/svg">
<rect width="36" height="36" fill="#F5F5F5"/>
<g clip-path="url(#clip0_0_1)" filter="url(#filter0_d_0_1)">
<rect width="393" height="852" transform="translate(-178 -799)" fill="white"/>
<rect x="-178" y="-799" width="393" height="852" fill="#1B58B1"/>
<path d="M25.5 33V30H30V25.5H33V30.75C33 31.35 32.7 31.8 32.25 32.25C31.8 32.7 31.2 33 30.75 33H25.5ZM10.5 33H5.25C4.65 33 4.2 32.7 3.75 32.25C3.3 31.8 3 31.2 3 30.75V25.5H6V30H10.5V33ZM25.5 3H30.75C31.35 3 31.8 3.3 32.25 3.75C32.7 4.2 33 4.65 33 5.25V10.5H30V6H25.5V3ZM10.5 3V6H6V10.5H3V5.25C3 4.65 3.3 4.2 3.75 3.75C4.2 3.3 4.65 3 5.25 3H10.5ZM28.5 16.5H7.5V19.5H28.5V16.5Z" fill="#14407F"/>
</g>
<defs>
<filter id="filter0_d_0_1" x="-182" y="-799" width="401" height="860" filterUnits="userSpaceOnUse" color-interpolation-filters="sRGB">
<feFlood flood-opacity="0" result="BackgroundImageFix"/>
<feColorMatrix in="SourceAlpha" type="matrix" values="0 0 0 0 0 0 0 0 0 0 0 0 0 0 0 0 0 0 127 0" result="hardAlpha"/>
<feOffset dy="4"/>
<feGaussianBlur stdDeviation="2"/>
<feComposite in2="hardAlpha" operator="out"/>
<feColorMatrix type="matrix" values="0 0 0 0 0 0 0 0 0 0 0 0 0 0 0 0 0 0 0.25 0"/>
<feBlend mode="normal" in2="BackgroundImageFix" result="effect1_dropShadow_0_1"/>
<feBlend mode="normal" in="SourceGraphic" in2="effect1_dropShadow_0_1" result="shape"/>
</filter>
<clipPath id="clip0_0_1">
<rect width="393" height="852" fill="white" transform="translate(-178 -799)"/>
</clipPath>
</defs>
</svg>
