<svg width="46" height="46" viewBox="0 0 46 46" fill="none" xmlns="http://www.w3.org/2000/svg">
<g id="mdi:add-location">
<path id="Vector" d="M17.2642 22.157C17.8751 22.157 18.48 22.0367 19.0443 21.8029C19.6087 21.5691 20.1215 21.2265 20.5535 20.7945C20.9854 20.3626 21.3281 19.8498 21.5618 19.2854C21.7956 18.721 21.9159 18.1162 21.9159 17.5053C21.9159 16.8944 21.7956 16.2895 21.5618 15.7251C21.3281 15.1608 20.9854 14.648 20.5535 14.216C20.1215 13.7841 19.6087 13.4414 19.0443 13.2077C18.48 12.9739 17.8751 12.8536 17.2642 12.8536C16.0305 12.8536 14.8473 13.3437 13.9749 14.216C13.1026 15.0884 12.6125 16.2716 12.6125 17.5053C12.6125 18.1162 12.7328 18.721 12.9666 19.2854C13.2003 19.8498 13.543 20.3626 13.9749 20.7945C14.8473 21.6669 16.0305 22.157 17.2642 22.157ZM17.2642 4.48047C24.4465 4.48047 30.289 10.3044 30.289 17.5053C30.289 27.2739 17.2642 41.6942 17.2642 41.6942C17.2642 41.6942 4.23938 27.2739 4.23938 17.5053C4.23938 14.0509 5.61163 10.738 8.05426 8.29535C10.4969 5.85272 13.8098 4.48047 17.2642 4.48047ZM28.4283 32.3908H34.0104V26.8087H37.7318V32.3908H43.3138V36.1122H37.7318V41.6942H34.0104V36.1122H28.4283V32.3908Z" fill="#1B58B1"/>
</g>
</svg>
