<svg width="42" height="42" viewBox="0 0 42 42" fill="none" xmlns="http://www.w3.org/2000/svg">
<g id="mdi:file-report">
<path id="Vector" d="M22.5139 15.9326H31.8949L22.5139 6.55161V15.9326ZM10.5745 3.99316H24.2196L34.4533 14.2269V34.6945C34.4533 35.5992 34.0939 36.4669 33.4542 37.1066C32.8145 37.7464 31.9468 38.1058 31.0421 38.1058H10.5745C9.66979 38.1058 8.80212 37.7464 8.16239 37.1066C7.52265 36.4669 7.16325 35.5992 7.16325 34.6945V7.40443C7.16325 5.51118 8.68126 3.99316 10.5745 3.99316ZM12.2801 34.6945H15.6914V24.4607H12.2801V34.6945ZM19.1027 34.6945H22.5139V21.0495H19.1027V34.6945ZM25.9252 34.6945H29.3365V27.872H25.9252V34.6945Z" fill="#1B58B1"/>
</g>
</svg>
