<svg width="35" height="35" viewBox="0 0 35 35" fill="none" xmlns="http://www.w3.org/2000/svg">
<rect width="35" height="35" fill="#F5F5F5"/>
<g id="homepage" clip-path="url(#clip0_0_1)" filter="url(#filter0_d_0_1)">
<rect width="393" height="852" transform="translate(-43 -799)" fill="white"/>
<rect id="Rectangle 1" x="-43" y="-799" width="393" height="852" fill="#1B58B1"/>
<g id="solar:home-2-bold">
<path id="Vector" fill-rule="evenodd" clip-rule="evenodd" d="M3.6288 11.265C2.88 12.6287 2.88 14.2775 2.88 17.5722V19.7639C2.88 25.3799 2.88 28.1893 4.56768 29.9346C6.25392 31.6799 8.96976 31.6799 14.4 31.6799H20.16C25.5902 31.6799 28.3061 31.6799 29.9923 29.9346C31.68 28.1893 31.68 25.3813 31.68 19.7639V17.5736C31.68 14.2775 31.68 12.6301 30.9312 11.265C30.1853 9.89844 28.8187 9.05172 26.087 7.3554L23.207 5.56836C20.3198 3.77556 18.8755 2.87988 17.28 2.87988C15.6845 2.87988 14.2416 3.77556 11.353 5.56836L8.47296 7.3554C5.74128 9.05172 4.37616 9.89844 3.6288 11.265ZM16.2 25.9199C16.2 26.2063 16.3138 26.481 16.5163 26.6836C16.7189 26.8861 16.9936 26.9999 17.28 26.9999C17.5664 26.9999 17.8411 26.8861 18.0437 26.6836C18.2462 26.481 18.36 26.2063 18.36 25.9199V21.5999C18.36 21.3134 18.2462 21.0387 18.0437 20.8362C17.8411 20.6337 17.5664 20.5199 17.28 20.5199C16.9936 20.5199 16.7189 20.6337 16.5163 20.8362C16.3138 21.0387 16.2 21.3134 16.2 21.5999V25.9199Z" fill="white"/>
</g>
</g>
<defs>
<filter id="filter0_d_0_1" x="-47" y="-799" width="401" height="860" filterUnits="userSpaceOnUse" color-interpolation-filters="sRGB">
<feFlood flood-opacity="0" result="BackgroundImageFix"/>
<feColorMatrix in="SourceAlpha" type="matrix" values="0 0 0 0 0 0 0 0 0 0 0 0 0 0 0 0 0 0 127 0" result="hardAlpha"/>
<feOffset dy="4"/>
<feGaussianBlur stdDeviation="2"/>
<feComposite in2="hardAlpha" operator="out"/>
<feColorMatrix type="matrix" values="0 0 0 0 0 0 0 0 0 0 0 0 0 0 0 0 0 0 0.25 0"/>
<feBlend mode="normal" in2="BackgroundImageFix" result="effect1_dropShadow_0_1"/>
<feBlend mode="normal" in="SourceGraphic" in2="effect1_dropShadow_0_1" result="shape"/>
</filter>
<clipPath id="clip0_0_1">
<rect width="393" height="852" fill="white" transform="translate(-43 -799)"/>
</clipPath>
</defs>
</svg>
