<svg width="40" height="36" viewBox="0 0 40 36" fill="none" xmlns="http://www.w3.org/2000/svg">
<path id="Vector" d="M39.6313 16.6127L35.5556 12.9684V3.375C35.5556 3.07663 35.4385 2.79048 35.2301 2.5795C35.0217 2.36853 34.7391 2.25 34.4444 2.25H30C29.7053 2.25 29.4227 2.36853 29.2143 2.5795C29.006 2.79048 28.8889 3.07663 28.8889 3.375V7.00805L21.8597 0.724219C21.4236 0.324141 20.5924 0 20 0C19.4076 0 18.5792 0.324141 18.1431 0.724219L0.365278 16.6148C0.146238 16.8389 0.0162279 17.1367 0 17.4516C0.0141923 17.7266 0.11357 17.99 0.284028 18.2046L1.77083 19.8773C2.00255 20.0879 2.29439 20.2184 2.60417 20.25C2.87274 20.2228 3.12915 20.123 3.34653 19.961L4.45069 18.9766V33.75C4.45069 34.3467 4.68482 34.919 5.10157 35.341C5.51832 35.7629 6.08355 36 6.67292 36H33.3333C33.9227 36 34.4879 35.7629 34.9047 35.341C35.3214 34.919 35.5556 34.3467 35.5556 33.75V18.9759L36.6604 19.9603C36.8788 20.1221 37.1357 20.2221 37.4049 20.25C37.7119 20.2175 38.0006 20.0867 38.2292 19.8766L39.716 18.2025C39.8756 17.9823 39.9737 17.7227 40 17.4509C39.9681 17.1389 39.839 16.8454 39.6313 16.6127ZM20 12.375C20.879 12.375 21.7383 12.6389 22.4692 13.1334C23.2001 13.6279 23.7697 14.3307 24.1061 15.1529C24.4425 15.9752 24.5305 16.88 24.359 17.7529C24.1876 18.6258 23.7643 19.4276 23.1427 20.057C22.5211 20.6863 21.7292 21.1149 20.8671 21.2885C20.0049 21.4622 19.1113 21.3731 18.2992 21.0325C17.4871 20.6919 16.7929 20.1151 16.3046 19.3751C15.8162 18.635 15.5556 17.765 15.5556 16.875C15.5556 15.6815 16.0238 14.5369 16.8573 13.693C17.6908 12.8491 18.8213 12.375 20 12.375ZM27.7778 31.5H12.2222C11.9275 31.5 11.6449 31.3815 11.4365 31.1705C11.2282 30.9595 11.1111 30.6734 11.1111 30.375C11.1111 28.5848 11.8135 26.8679 13.0637 25.602C14.314 24.3362 16.0097 23.625 17.7778 23.625H22.2222C23.9903 23.625 25.686 24.3362 26.9363 25.602C28.1865 26.8679 28.8889 28.5848 28.8889 30.375C28.8889 30.6734 28.7718 30.9595 28.5635 31.1705C28.3551 31.3815 28.0725 31.5 27.7778 31.5Z" fill="#1B58B1"/>
</svg>
