<svg width="27" height="38" viewBox="0 0 27 38" fill="none" xmlns="http://www.w3.org/2000/svg">
<path id="Vector" d="M13.5 0C6.05571 0 0 5.966 0 13.3C0 23.275 13.5 38 13.5 38C13.5 38 27 23.275 27 13.3C27 5.966 20.9443 0 13.5 0ZM10.4914 19H7.71429V16.264L14.175 9.918L16.9329 12.635L10.4914 19ZM19.0736 10.545L17.7236 11.875L14.9464 9.139L16.2964 7.809C16.3646 7.74121 16.4457 7.6874 16.535 7.65068C16.6244 7.61396 16.7203 7.59505 16.8171 7.59505C16.914 7.59505 17.0099 7.61396 17.0992 7.65068C17.1886 7.6874 17.2697 7.74121 17.3379 7.809L19.0736 9.519C19.3629 9.804 19.3629 10.26 19.0736 10.545Z" fill="#1B58B1"/>
</svg>
